<!-- icon666.com - MILLIONS vector ICONS FREE --><svg id="圖層_1" viewBox="0 0 512 512" xmlns="http://www.w3.org/2000/svg"><path d="m60.167 369.598-.702-245.846 187.645 109.045.689 245.84zm196.745-153.783-187.738-109.094 184.832-106.721 187.742 109.098zm50.315 262.582 57.457-33.172.188 66.671zm77.252 33.603-.238-83.756c0-.875-.333-5.04-3.528-7.41-4.274-3.174-8.696-2.396-11.177-1.057l-102.13 58.966-.687-245.946v-.003l184.832-106.715v.003l.984 346.64zm-.803-285.13c-.007-2.622-1.317-5.695-3.604-7.467-3.641-2.823-8.094-2.735-11.102-.997l-29.162 16.827c-3.041 1.766-4.91 5.008-4.898 8.523l.371 134.198c.012 3.49.922 6.231 4.904 8.455 3.982 2.223 8.279.881 9.803.006l29.171-16.827c4.096-2.481 4.798-7.197 4.893-11.265.069-3.056-.376-131.453-.376-131.453zm-28.896 111.568-.245-89.062 9.584-5.535.282 100.188z" fill="#000000" style="fill: rgb(87, 87, 255);"></path></svg>